<svg width="2224" height="162" viewBox="0 0 2224 162" fill="none" xmlns="http://www.w3.org/2000/svg">
<path d="M1681.87 77.0469C1681.87 89.3278 1681.89 100.248 1682.59 113.372C1683.98 139.388 1722.16 140.12 1737.55 128.622C1747.23 121.386 1745.23 87.0876 1745.23 74.0986L1745.19 8.75391H1777.68L1777.7 73.7031C1777.7 89.6417 1778.32 108.987 1775.42 124.885C1774.41 128.217 1772.4 131.629 1771.15 134.826C1765.24 150.014 1749.01 156.835 1734.17 159.961C1731.19 160.589 1726.76 161.072 1724.02 162H1703.28C1689.3 158.766 1677.99 158.131 1666.25 148.721C1645.05 131.75 1648.74 97.566 1648.75 72.9326L1648.79 8.75391H1681.91L1681.87 77.0469Z" fill="black"/>
<path d="M2004.73 2.84082C2022.18 2.56642 2038.18 4.67498 2052.38 15.9541C2064.58 25.6491 2067.57 37.0927 2069.15 51.7871H2039.07C2038.31 45.8982 2036.77 40.6409 2032.28 36.417C2021.58 26.3369 1997.29 26.2296 1986.88 36.6201C1980.43 43.0505 1982.3 53.972 1989.9 58.543C1994.8 61.7656 2000.34 62.4876 2005.79 64.1201C2023.35 69.3787 2049.38 71.0897 2062.98 84.1533C2078.81 99.351 2076.28 128.002 2061.59 143.109C2049.85 155.178 2031.76 159.611 2015.35 159.949L2015.24 159.957C2001.24 160.954 1977.24 155.209 1966.66 144.99C1955.19 133.9 1952.64 125.13 1951.63 110.003C1961.38 109.945 1971.44 109.769 1981.16 110.094C1983.01 116.844 1984.45 123.423 1990.32 128.075C1998.46 134.532 2012.22 134.392 2022.08 133.492C2028.47 132.908 2035.7 130.644 2039.84 125.565C2041.89 123.048 2044.52 116.538 2044.02 113.339C2041.53 97.4866 2007.7 95.4759 1994.62 91.3506C1985.26 88.3986 1974.24 85.9121 1966.43 79.7393C1958.99 73.5871 1954.44 61.8375 1954.07 52.2354C1953.6 39.7343 1956.38 30.4804 1964.21 21.0605C1975.4 7.59455 1988.16 4.55733 2004.73 2.84082Z" fill="black"/>
<path d="M1862.2 2.21387C1898.4 1.89851 1926.57 14.4988 1933.53 52.8457H1902.65C1896.5 32.9662 1878.38 24.6164 1858.94 29.4014C1848.96 31.856 1840.38 38.2216 1835.14 47.0645C1825.85 62.4712 1825.64 86.4463 1829.54 103.597C1831.78 113.436 1838.29 121.708 1846.95 126.911C1856.65 132.667 1868.23 134.319 1879.14 131.501C1894.86 127.547 1902.19 116.565 1905.33 102.916C1905.65 101.566 1905.54 101.937 1905.23 100.58C1902.85 99.8892 1876.12 100.283 1871.75 100.307V75.1963H1933.88C1933.82 86.0722 1934.33 100.512 1933.8 111.099C1931.81 119.485 1925.78 129.428 1921.01 135.923C1899.25 165.551 1849.21 165.688 1821.36 144.743C1788.81 120.258 1787.25 58.9459 1811.83 28.0371C1825.15 11.2925 1841.29 4.56626 1862.2 2.21387Z" fill="black"/>
<path fill-rule="evenodd" clip-rule="evenodd" d="M1549.02 7.66797C1578.44 7.64759 1624.86 1.86621 1625.43 46.4609C1625.6 59.3311 1620.46 70.6767 1608.26 76.2803C1608.63 76.3847 1620.05 84.0465 1622.45 87.1758C1633.33 101.416 1631.76 119.957 1624.35 134.936C1623.67 135.529 1618.11 143.058 1615.84 145.217C1600.38 159.924 1568.38 156.98 1548.28 156.975L1504.09 156.938V7.7002L1549.02 7.66797ZM1583.12 92.1582C1568.38 90.5585 1549.01 90.7316 1534.04 91.2783V130.886C1546.88 130.933 1559.76 130.956 1572.59 130.971C1583.9 130.983 1584.42 129.488 1593.6 124.979C1602.48 112.404 1599.5 93.9355 1583.12 92.1582ZM1572.14 33.6357C1559.59 33.4182 1546.63 33.6216 1534.04 33.6475V66.7559C1546.72 66.8065 1582.69 69.2068 1591.08 61.4053C1596.71 55.1785 1596.53 48.6694 1593.69 41.0752C1588.07 35.0549 1580.17 33.775 1572.14 33.6357Z" fill="black"/>
<path d="M1369.02 0C1371.48 0.789688 1375.17 1.22397 1377.81 1.8916C1403.81 8.46254 1418.97 24.3305 1423.36 50.3145H1392.47C1391.76 48.0168 1390.48 43.6817 1389.32 41.9219C1370.76 13.6792 1327.84 24.1817 1320.31 56.0547C1315.83 75.0048 1314.86 94.1888 1323.63 110.944C1333.37 129.549 1360.23 135.61 1377.73 125.646C1388.87 119.305 1393.12 109.69 1396.34 98.0859H1361.49V72.8799H1423.83C1423.69 93.1488 1427.26 106.524 1416.58 125.362C1396.78 160.266 1350.52 165.093 1317.36 146.36C1280.83 125.728 1276.89 66.1096 1296.91 32.5615C1309.33 11.719 1324.69 5.57464 1347.03 0H1369.02Z" fill="black"/>
<path d="M2199.23 111.17C2200.9 114.932 2199.73 120.634 2203.48 122.671C2206.26 122.426 2209.45 117.697 2212.8 118.531C2212.2 121.697 2208.13 125.616 2207.96 128.374C2209.8 130.829 2216.72 129.92 2218.55 132.229C2215.89 133.887 2210.62 134.516 2209.38 137.788C2209.33 139.624 2214.35 145.395 2215.93 147.542C2212.22 145.841 2206.92 144.233 2202.96 142.945L2202.59 156.646C2201.02 153.434 2197.78 148.682 2195.75 145.536L2195.09 145.438C2194.11 147.179 2189.46 152.514 2187.54 152.728C2186.75 150.723 2188.15 144.49 2188.56 141.785C2186.53 141.984 2178.43 143.091 2177.02 142.73C2177.84 140.691 2182.9 136.334 2184.75 134.547C2183.29 132.631 2177.7 129.538 2174.95 127.237C2179.13 126.879 2183.6 126.913 2187.8 126.862C2186.61 122.893 2185.05 118.676 2183.67 114.736C2187.04 116.478 2189.44 119.302 2193.37 121.03C2195.61 119.87 2196.72 114.302 2199.23 111.17Z" fill="black"/>
<path d="M332.119 4.06543C336.034 3.16731 360.675 3.51364 365.133 3.96387V153.141H334.125L334.141 85.2676C334.141 74.7908 334.582 59.7925 334.004 49.6455L333.252 49.2617C325.817 61.3999 313.454 77.6045 306.905 88.9053C294.99 108.215 277.151 133.862 264.11 152.798C263.667 152.881 263.222 152.953 262.776 153.015C259.91 153.427 235.181 153.57 233.334 152.182C264.652 102.843 300.946 53.4697 332.119 4.06543Z" fill="black"/>
<path d="M2187.55 4.10742C2193.99 4.07168 2214.22 3.58628 2219.91 4.42676V4.82617C2219.04 5.25174 2122.88 142.044 2116.63 153C2105.98 153.443 2093.86 153.149 2083.11 153.118C2089.59 146.153 2100.91 127.152 2107.16 118.743C2124.54 95.3456 2140.37 70.144 2157.71 46.6924C2165.35 36.349 2179.56 12.7172 2187.55 4.10742Z" fill="black"/>
<path d="M31.0078 153.141H0V3.90332H31.0078V153.141Z" fill="black"/>
<path d="M136.377 60.4277H194.583V3.90332H225.604V153.141H194.583V86.3848H136.377V153.141H105.15V3.90332H136.377V60.4277Z" fill="black"/>
<path d="M497.92 30.2686H453.2V153.141H421.979V30.2686H376.63V3.90332H497.92V30.2686Z" fill="black"/>
<path d="M621.744 30.2686H542.85V61.9092H615.2V87.9609H545.959L543.316 88.1113C542.326 89.6817 542.827 121.614 542.85 125.93H625.112V153.141H511.945V3.90332H621.744V30.2686Z" fill="black"/>
<path d="M812.639 30.2686H737.859V64.0176H803.146V90.8145H737.859V153.141H706.744V4.10742H812.639V30.2686Z" fill="black"/>
<path d="M861.789 125.93H935.619V153.141H830.143V3.90332H861.789V125.93Z" fill="black"/>
<path d="M924.128 4.0332C934.999 3.44551 949.782 3.89721 960.944 3.90332C964.855 9.60115 996.167 61.3765 998.68 62.0938C1002.77 57.4302 1005.62 51.9183 1009.19 47.1094C1018.53 34.5288 1028.74 15.8447 1038.22 3.90332L1069.17 3.93359C1057.66 22.829 1043.89 41.246 1031.94 59.957C1026.99 67.715 1021.28 76.5333 1015.83 83.9004C1014.54 86.5941 1006.24 98.2259 1004.2 101.47C993.661 118.353 980.043 136.274 969.956 153.141L938.423 153.133L980.625 89.8545C963.805 63.7867 946.232 38.1178 929.292 12.1182C927.539 9.42239 925.672 6.86573 924.128 4.0332Z" fill="black"/>
<path d="M1112.81 153.141H1082V3.90332H1112.81V153.141Z" fill="black"/>
<path d="M1177.18 3.90332C1192.48 33.2414 1211.29 62.7998 1227.53 91.7891C1229.93 96.0719 1232.48 102.311 1235.43 105.99C1236.38 104.54 1235.99 13.8354 1235.98 3.90332H1265.31V153.141H1234.12C1221.76 130.185 1206.44 106.353 1193.83 83.2793C1191.42 78.8654 1176.4 52.2266 1174.37 50.0176L1173.61 50.3398C1173.06 59.8122 1173.53 74.9696 1173.54 84.8174L1173.56 153.141H1144.02V3.90332H1177.18Z" fill="black"/>
</svg>
