<svg width="1305" height="131" viewBox="0 0 1305 131" fill="none" xmlns="http://www.w3.org/2000/svg">
<path d="M1113.96 16.2103C1129.97 -4.67886 1163.15 1.6744 1170.54 22.7367C1171.56 25.6248 1174.32 34.0194 1173.28 37.6283C1173.08 38.3304 1172.18 38.7788 1171.13 38.8539C1168.08 39.0725 1162.33 39.1416 1157.84 39.3404C1155.67 39.4362 1153.69 38.4332 1153.29 36.9853C1151.53 30.5588 1146.81 17.8685 1134.46 23.4805C1129.94 25.5366 1128.81 34.0499 1128.25 37.8954C1125.66 55.6195 1151.67 54.2592 1164.74 64.1873C1181.19 76.878 1181.99 108.897 1163.38 122.269C1157.59 126.398 1149.61 128.793 1141.22 128.926C1133.28 129.027 1125.64 126.931 1120.03 123.122C1109.43 115.936 1107.61 105.392 1107.25 95.7461C1107.19 94.2254 1109.02 92.9899 1111.26 92.9741C1115.42 92.9448 1119.58 92.8382 1123.74 92.7249C1125.85 92.6676 1127.65 93.7284 1127.86 95.1496C1128.63 100.237 1129.32 103.835 1133.72 108.552C1134.05 108.9 1134.51 109.198 1135.05 109.392C1153.2 116.003 1157.41 95.3344 1153.77 87.44C1151.12 81.6575 1140.04 78.7798 1132.57 76.5593C1101.79 67.4165 1099.93 34.5141 1113.96 16.2103Z" fill="black"/>
<path d="M1220.39 2.73729C1224.1 2.61818 1228.79 2.72827 1232.89 2.83937C1235.29 2.90443 1237.08 4.37078 1236.7 5.97928C1229.93 34.3395 1214.84 82.833 1199.18 126.111C1198.74 127.323 1197.14 128.173 1195.3 128.161C1190.95 128.134 1188.22 128.062 1184.59 128.083C1181.95 128.099 1179.94 126.448 1180.53 124.701C1190.07 96.63 1197.62 69.9761 1205.99 41.5875C1207.55 36.3091 1214.3 11.3122 1217.38 4.291C1217.78 3.3747 1218.98 2.78243 1220.39 2.73729Z" fill="black"/>
<path d="M1061.23 3.68781C1083 2.89797 1092.22 20.6022 1095.51 32.4872C1096.52 36.1641 1080.44 45.287 1074.02 46.8551C1073.21 47.0537 1072.31 46.927 1071.73 46.4906C1069.95 45.1412 1068.55 42.466 1066.81 41.0632C1050.46 27.8139 1046.31 60.8504 1045.76 65.8278C1045.26 74.4699 1045.17 84.9462 1054.05 91.8433C1058.73 95.4759 1067.77 97.7753 1073.51 93.9982C1077.93 91.0863 1078.71 87.1688 1079 83.2051C1079.1 81.8593 1077.69 80.6807 1075.73 80.5059C1071.92 80.168 1067.18 79.8855 1063.27 79.637C1061.29 79.5112 1059.76 78.4124 1059.69 77.0651C1059.45 72.689 1059.27 65.2651 1061.33 62.7025C1061.67 62.2916 1062.3 62.0634 1062.98 62.0105C1069.47 61.5106 1088.58 63.6773 1094.9 64.636C1095.24 64.6887 1095.58 64.7694 1095.87 64.9065C1099.92 66.8056 1098.52 72.2604 1098.9 75.5677C1100.74 91.6485 1091 138.785 1053.16 125.251C1005 108.027 1011.59 12.9682 1060.48 3.77133C1060.72 3.72548 1060.98 3.69698 1061.23 3.68781Z" fill="black"/>
<path d="M801.404 3.71499C821.844 4.28391 831.951 21.4277 834.039 33.5312C834.168 34.2817 833.796 35.0227 832.975 35.533C828.66 38.2159 816.46 44.8912 813.43 46.5462C809.313 48.7952 807.223 40.0632 799.696 38.0273C799.313 37.9237 798.891 37.8796 798.48 37.902C787.382 38.509 785.958 54.9121 784.905 60.5098C783.056 70.3564 782.877 94.5014 802.904 95.8688C814.963 96.6921 816.752 89.5953 817.338 83.4105C817.474 81.9738 815.891 80.7286 813.782 80.5749L801.825 79.7032C799.911 79.5638 798.412 78.5183 798.256 77.2162C797.031 67.0228 796.397 59.0289 815.148 62.4732C820.799 63.5108 828.031 63.9039 834.393 64.9105C835.148 65.0298 835.854 65.3022 836.187 65.7768C836.505 66.2285 836.72 66.752 836.763 67.1595C838.688 85.284 837.141 105.206 821.982 120.814C813.485 128.943 799.962 129.589 788.625 124.01C752.9 106.43 750.013 9.08704 800.721 3.7415C800.943 3.718 801.179 3.70872 801.404 3.71499Z" fill="black"/>
<path d="M691.295 4.22538C696.152 3.62728 709.114 4.27317 714.364 5.88515C714.795 6.01742 715.16 6.20858 715.396 6.48636C720.081 11.9896 722.03 47.7079 727.719 54.8053C728.376 55.6253 729.888 55.5893 730.29 54.6966C733.723 47.0742 719.736 9.77425 725.972 4.85111C726.421 4.49441 744.543 4.75612 748.98 5.55373C749.561 5.65807 749.975 5.96201 750.187 6.34318C750.79 7.42492 750.927 8.68218 750.956 9.83043C751.836 44.0448 753.864 78.0677 753.321 112.305C753.27 115.819 755.464 120.908 751.626 123.667C751.065 124.069 750.251 124.236 749.436 124.27C741.75 124.596 733.668 126.362 726.02 126.96C716.994 127.665 715.097 126.667 714.21 120.756C711.013 103.503 709.823 86.102 703.918 69.1116C702.642 65.4521 703.345 59.1355 700.146 55.913C699.97 55.7353 699.669 55.6377 699.353 55.6392C699.045 55.6407 698.767 55.7155 698.615 55.8977C692.847 62.7981 711.279 115.739 707.71 125.242C707.443 125.952 706.475 126.335 705.397 126.378C699.067 126.632 687.239 125.697 680.661 126.062C679.947 126.101 679.179 125.965 678.586 125.692C678.237 125.531 677.993 125.351 677.814 125.091C674.236 119.879 675.863 99.3761 675.964 93.3334L676.156 55.6253C676.108 41.9449 675.049 28.2859 675.654 14.6149C675.755 12.2148 675.734 9.76793 676.35 7.40109C676.46 6.9783 676.727 6.57359 677.2 6.28883C680.355 4.39107 686.49 4.62655 691.295 4.22538Z" fill="black"/>
<path d="M994.629 5.95674C999.402 5.70043 1004.55 5.73111 1009.45 5.76518C1011.45 5.77919 1013.14 6.78611 1013.33 8.13486C1013.36 8.3369 1013.38 8.53908 1013.41 8.74137C1015.15 22.5384 1014.73 38.0599 1014.91 52.0366C1015.12 68.685 1015.69 86.1524 1011.45 102.568C1010.32 111.174 999.632 127.849 983.758 127.046C940.177 124.841 952.676 60.4489 951.727 43.1074C951.237 39.9309 949.952 14.2366 950.619 8.40265C950.694 7.74337 951.264 7.18535 952.182 6.96427C956.042 6.03516 963.064 6.29919 968.067 6.56524C970.02 6.66914 971.58 7.72232 971.708 9.04893C973.565 28.357 968.318 50.1405 970.262 69.3774C972.18 76.0809 971.864 89.3987 975.142 95.6408C975.211 95.7719 975.304 95.9034 975.405 96.0245C986.797 109.661 988.347 96.1273 990.687 90.8497C994.973 81.1839 988.861 16.9508 992.295 7.12601C992.551 6.3925 993.522 6.0162 994.629 5.95674Z" fill="black"/>
<path d="M275.234 4.75964C276.338 4.07044 277.831 4.36865 278.163 5.3615C278.662 6.85583 278.922 9.18045 279.055 11.6539C279.206 14.4532 284.114 15.217 286.042 12.7403C288.675 9.35883 291.568 6.20689 294.273 4.96844C294.851 4.70387 295.57 4.63406 296.249 4.74108C300.43 5.40033 300.738 7.8496 301.24 10.6007L301.403 12.2399C301.635 14.5715 306.136 15.1137 307.415 12.9438L308.095 11.7765C308.533 11.0779 309.185 10.1871 309.808 9.34323C310.439 8.48959 311.679 7.91582 313.081 7.83459L317.833 7.55885C319.969 7.43509 321.874 8.47615 322.057 9.92588C322.916 16.7312 322.476 24.2864 323.653 30.9932C324.245 34.3612 325.167 42.4681 321.491 45.1629C321.132 45.4263 320.565 45.4725 320.067 45.3511C319.863 45.3014 319.678 45.2287 319.534 45.1191C317.486 43.5636 315.368 38.5654 313.595 33.9084C312.636 31.3922 307.994 31.2731 306.754 33.7321C305.184 36.8457 303.508 39.9289 301.328 42.8303C300.736 43.6187 299.852 44.1312 298.834 44.5358C297.336 45.1309 296.339 46.1822 296.48 47.3562C296.8 50.0153 296.796 51.8413 296.731 54.7841C296.717 55.4213 297.017 56.0663 297.805 56.4127C300.198 57.4644 304.547 58.0041 306.626 59.153C313.939 63.1957 302.264 70.8831 294.54 76.2061C292.396 77.6833 293.681 80.001 296.613 80.5828C316.705 84.5688 297.712 93.5288 287.817 100.259C286.335 101.268 286.459 102.868 288.059 103.789C295.989 108.355 311.448 115.949 313.666 119.934C313.9 120.355 313.814 120.823 313.434 121.192C309.799 124.718 294.484 124.281 288.366 125.321C285.705 125.773 274.464 126.792 270.158 126.822C269.276 126.828 268.397 126.547 268.13 125.977C266.829 123.196 274.218 118.927 279.239 116.065C281.095 115.007 280.977 113.147 278.99 112.205C273.385 109.546 265.546 105.955 264.127 102.996C263.993 102.716 263.982 102.419 264.133 102.143C265.491 99.6549 273.906 94.8322 279.551 91.5497C281.467 90.4351 281.298 88.4326 279.289 87.3963C263.973 79.4974 269.026 78.9859 282.906 70.6772C284.799 69.5439 284.592 67.5169 282.57 66.4913C270.389 60.3143 273.192 59.5632 283.791 51.342C284.908 50.4751 285.085 49.2139 284.225 48.2206C283.141 46.9676 282.045 45.7193 280.938 44.4755C279.784 43.1784 277.282 42.7884 275.398 43.6019L275.075 43.7411C272.484 44.86 269.092 43.6614 269.023 41.5775C268.957 39.5632 268.931 37.5253 268.933 35.4853C268.937 32.5813 262.989 31.5743 260.961 34.1311C259.917 35.4471 258.846 36.7721 257.73 38.1261C257.02 38.9879 255.67 39.5146 254.216 39.5048L251.364 39.4856C248.961 39.4694 247.121 38.0292 247.511 36.4199C249.28 29.1104 252.037 21.9051 252.806 14.5917C252.866 14.0096 247.487 12.311 250.496 8.78511C250.839 8.38316 251.392 8.08289 252.023 7.90419C254.264 7.27037 257.261 6.65336 259.706 6.67461C260.675 6.68306 261.338 6.80312 261.662 7.42296C262.993 9.97415 267.448 11.5466 269.74 9.33196C271.674 7.46374 273.615 5.77083 275.234 4.75964Z" fill="black"/>
<path d="M505.371 7.29835C505.772 5.84719 508.02 5.15192 510.13 5.51065C515.52 6.42717 519.017 6.14974 523.669 7.10546C524.51 7.27832 525.205 7.67445 525.383 8.25881C526.374 11.522 525.844 21.426 525.736 23.7827C524.623 48.3397 523.111 72.92 524.767 97.4788C524.86 98.8483 526.449 99.9443 528.468 99.987C537.963 100.188 556.442 100.121 562.293 101.16C563.006 101.287 563.598 101.618 563.862 102.085C565.2 104.452 564.752 109.312 564.674 111.51C564.528 115.601 566.922 121.23 565.324 125.241C564.988 126.085 563.862 126.635 562.575 126.674C555.527 126.888 539.622 125.756 533.868 125.541C525.214 125.217 517.542 125.183 509.085 125.206C506.996 125.212 505.251 124.128 505.19 122.711C504.971 117.602 505.445 110.195 505.554 105.953C505.707 96.7488 505.734 87.5441 505.635 78.3398L505.03 31.3909C504.925 25.3604 503.525 13.9745 505.371 7.29835Z" fill="black"/>
<path d="M612.873 4.99495C617.424 4.94601 626.085 5.08855 629.93 6.48172C630.797 6.79616 631.189 7.45119 631.104 8.1163C630.516 12.734 625.74 23.836 624.112 27.9686L612.742 57.5429C610.006 64.4889 606.717 71.4944 604.782 78.5631C602.045 88.5632 601.857 99.7664 601.971 109.934C602.017 114.013 602.594 118.295 602.199 122.343C602.125 123.102 602.176 124.377 601.273 124.853C598.893 126.109 585.085 126.973 581.914 126.594C581.04 126.489 580.773 126.336 580.305 125.855C576.109 121.544 582.313 92.0671 583.983 85.6086C584.317 84.4611 586.571 78.0537 586.332 77.3627C582.804 67.1714 576.767 56.6225 572.108 46.6225C568.454 38.4205 564.529 30.1945 561.102 21.9506C555.297 7.98374 549.352 5.25978 571.776 6.37367C573.16 6.44241 574.394 6.99873 574.954 7.86044C578.279 12.9815 581.843 21.7178 584.59 26.6979C586.221 29.6559 588.234 33.0373 590.118 36.3941C591.548 38.9403 597.207 38.8378 598.122 36.1846C601.382 26.7303 604.019 16.8597 608.423 7.79548C608.991 6.62522 609.614 6.0618 610.809 5.45231C611.403 5.14971 612.131 5.00293 612.873 4.99495Z" fill="black"/>
<path d="M131.475 4.26449C136.505 4.10974 140.426 4.07829 145.134 4.17103C146.913 4.20609 148.442 5.04484 148.733 6.23713C151.671 18.2456 147.679 42.3662 147.615 54.2618C147.554 65.6208 147.235 78.0592 147.587 89.463C147.724 93.9086 149.092 118.978 148.037 123.971C147.945 124.404 147.605 124.782 147.013 124.956C144.03 125.835 136.163 125.667 130.882 125.515C128.688 125.451 126.938 124.209 126.948 122.718C127.046 107.732 126.061 91.7655 125.761 76.5806C125.733 75.2037 124.197 74.0474 122.174 73.9457C115.198 73.5954 110.754 73.9175 103.81 74.4502C101.78 74.606 100.243 75.7733 100.255 77.1599C100.385 92.3488 101.243 107.509 101.32 122.7C101.212 123.712 101.082 124.041 100.625 124.727C100.368 125.114 99.9792 125.462 99.407 125.632C96.0854 126.62 87.5551 126.625 82.0281 126.639C80.0443 126.644 78.3051 125.686 78.1053 124.346C76.8845 116.158 78.7525 102.966 78.6727 94.8705C78.4527 72.6242 77.0514 50.262 78.7303 28.0647C79.1686 22.2712 78.8663 14.3001 79.95 8.62073C80.0589 8.05031 80.5068 7.55437 81.3358 7.43489C84.3223 7.00455 91.8019 6.94708 96.7322 6.88274C98.8881 6.85461 100.778 7.95446 100.933 9.41416C102.209 21.3749 100.096 34.4601 100.273 47.056C100.295 48.5936 102.231 49.7844 104.493 49.6988C110.479 49.472 116.471 49.3347 122.466 49.2858C124.58 49.2685 126.326 48.1493 126.43 46.7159C127.423 32.9919 127.049 19.025 127.995 5.38868C128.033 4.85633 129.495 4.56206 130.434 4.38181C130.774 4.3167 131.123 4.27536 131.475 4.26449Z" fill="black"/>
<path d="M372.571 5.63659C375.448 5.6473 387.297 5.34574 388.307 7.28708C391.386 13.2033 391.822 22.1616 390.51 28.9483C390.225 30.4172 388.157 31.3645 385.993 31.1721C373.054 30.0215 361.097 31.0528 348.252 32.3142C346.404 32.4957 344.985 33.5241 344.855 34.788C344.118 41.9932 344.243 46.9222 345.621 53.9662C345.919 55.4893 348.071 56.5147 350.294 56.2245C381.366 52.1677 381.332 51.1932 380.814 73.8768C380.778 75.471 378.735 76.7117 376.392 76.5898C366.26 76.0626 358.467 76.4511 348.717 78.8859C347.244 79.2538 346.265 80.1995 346.235 81.2642C346.084 86.5863 346.591 93.0983 346.97 98.6839C347.079 100.295 349.211 101.504 351.582 101.408C360.885 101.033 374.552 101.582 383.373 101.553C383.635 101.553 383.892 101.532 384.15 101.499C384.87 101.406 385.683 101.319 386.52 101.239C388.791 101.019 390.87 102.164 391.069 103.715C392.062 111.455 392.523 115.611 390.733 123.519C390.44 124.813 388.794 125.766 386.866 125.753C371.068 125.649 352.816 124.172 337.39 126.307C336.453 126.437 335.532 126.015 335.403 125.371C333.154 114.276 332.523 101.205 331.897 89.9502C331.237 78.0829 333.707 66.2895 333.864 54.342C334.024 42.2115 332.637 30.2121 333.137 18.1227C333.22 16.1012 333.803 11.7785 335.242 9.57722C335.599 9.03211 336.367 8.68665 337.226 8.56306C342.455 7.81136 348.016 8.2036 353.22 7.67087C360.198 6.95591 365.43 5.92173 372.571 5.63659Z" fill="black"/>
<path fill-rule="evenodd" clip-rule="evenodd" d="M896.43 5.67967C904.165 5.15934 917.014 4.7798 923.236 8.05598C943.535 18.7489 942.563 45.0861 930.433 59.206C929.55 60.2345 929.626 61.5278 930.673 62.4831C936.682 67.9678 939.139 72.5694 940.74 79.7483C943.476 92.0085 942.411 109.798 930.916 120.13C920.465 128.038 902.78 126.267 887.934 125.334C885.787 125.199 884.154 123.953 884.203 122.49C884.456 114.999 883.972 108.263 883.843 100.65L883.265 62.3273C883.08 52.0749 883.829 42.337 884.014 32.1452C884.158 24.421 883.872 16.5096 883.853 8.69762C883.85 7.32334 885.371 6.17026 887.389 6.06611C890.413 5.9103 893.725 5.80354 896.43 5.67967ZM903.11 74.5668C901.397 74.5747 900.047 75.3546 899.971 76.5163C899.621 81.8875 899.933 96.5181 900.131 102.92C900.177 104.405 901.986 105.576 904.175 105.597C909.775 105.649 915.879 105.695 919.615 103.594C919.856 103.459 920.061 103.294 920.231 103.116C924.566 98.553 924.944 93.5043 924.02 88.2261C921.858 75.8551 917.891 74.4986 903.11 74.5668ZM921.641 32.2095C919.915 25.1334 911.909 25.136 903.778 25.3669C901.873 25.421 900.28 26.373 900.141 27.6637C899.551 33.1434 900.005 43.1899 900.146 49.3315C900.181 50.8197 901.951 52.0435 904.142 52.0877C909.074 52.187 913.999 52.1934 918.132 50.5127C918.605 50.3201 918.992 50.042 919.268 49.7173C923.891 44.2796 923.096 38.1978 921.641 32.2095Z" fill="black"/>
<path fill-rule="evenodd" clip-rule="evenodd" d="M201.936 5.5133C203.117 5.50858 204.249 5.85041 205.009 6.46382C214.409 14.055 219.667 21.2938 218.596 31.5851C217.144 45.5337 236.179 46.5645 238.164 59.44C239.772 69.8706 233.232 79.98 236.679 90.2001C238.734 96.2958 247.624 100.098 251.77 105.401C255.086 109.367 256.512 119.474 255.052 124.194C254.899 124.688 254.495 125.14 253.825 125.359C251.432 126.14 247.148 126.068 243.557 125.924C241.366 125.835 239.666 124.562 239.7 123.072C239.828 117.424 239.333 110.372 234.342 106.532C225.713 99.8936 222.13 97.095 219.942 89.3165C219.516 87.7998 217.407 86.8168 215.15 87.0098C213.641 87.1388 212.132 87.172 210.752 86.9608L210.359 86.8985C206.738 86.3378 203.203 84.4642 200.097 83.0102C195.719 81.2729 189.094 81.3819 184.471 82.6629C163.491 88.4814 177.305 99.8098 180.235 109.787C181.624 114.519 180.353 119.39 177.873 123.85C177.312 124.857 175.87 125.499 174.283 125.507L166.904 125.544C163.929 125.559 161.982 123.425 163.027 121.534C171.117 106.907 155.947 105.28 157.93 90.0211C159.108 80.9648 175.158 76.2965 178.37 68.6211C182.813 58.0037 169.367 47.6302 171.217 36.7944C171.963 28.3654 183.227 25.1808 188.467 18.4607C191.416 14.6771 188.387 8.42819 193.635 5.93752C194.086 5.72316 194.633 5.62457 195.183 5.60344C197.259 5.52385 199.723 5.52214 201.936 5.5133ZM202.834 24.9036C202.552 23.3586 200.349 23.1546 198.788 24.2951C192.612 28.8082 184.246 35.1428 185.937 40.2227C189.526 50.9941 193.836 55.2382 194.225 65.8086C194.285 67.4274 196.307 68.6722 198.689 68.5919C202.153 68.4749 204.758 68.7982 208.298 70.8058C208.782 71.082 209.26 71.3641 209.731 71.651C209.937 71.776 210.157 71.8884 210.4 71.9764C213.515 73.103 219.805 74.0466 221.117 71.177C222.897 67.2849 222.968 61.0839 220.808 57.2744C216.277 50.1705 208.386 49.2852 204.653 41.4151C203.08 38.0975 203.663 29.4548 202.834 24.9036Z" fill="black"/>
<path d="M462.599 5.63725C468.219 5.15215 488.458 4.80186 494.879 6.20001C495.502 6.33581 496.008 6.63026 496.194 7.05641C497.462 9.96351 497.006 20.0126 496.735 25.3676C496.658 26.8796 494.782 28.0638 492.554 28.0382C483.656 27.9358 473.624 28.1549 464.644 28.2841C462.512 28.3149 460.781 29.4694 460.745 30.917C460.601 36.6957 460.827 43.1292 460.931 48.9809C460.958 50.4944 462.794 51.7071 465.023 51.6767C472.834 51.5697 480.529 51.474 488.345 51.5733C490.422 51.5998 492.106 52.7165 492.18 54.1259C492.403 58.3488 492.406 63.1946 492.159 67.3855C492.078 68.7583 490.463 69.8522 488.439 69.8871C481.153 70.0129 471.89 69.7865 464.097 69.787C461.939 69.7873 460.202 70.974 460.199 72.4391C460.185 79.8885 460.691 87.0284 461.292 94.5404C461.783 99.1855 462.691 119.266 460.322 124.221C460.11 124.665 459.625 125.007 458.979 125.168C455.586 126.013 448.494 125.917 443.286 125.789C440.987 125.732 439.211 124.374 439.26 122.813C439.431 117.305 438.523 111.105 438.898 105.791C440.552 82.3841 439.864 58.8372 440.264 35.429C440.34 31.0425 439.819 13.9159 440.639 8.95083C440.741 8.33451 441.25 7.79222 442.087 7.54294C446.761 6.15041 458.007 5.89096 462.599 5.63725Z" fill="black"/>
<path d="M7.56036 6.84032C8.16623 5.93791 9.64333 5.54036 11.0975 5.63659C16.0434 5.96422 20.5601 5.90667 25.2957 6.25105C26.6443 6.34912 27.8464 6.94313 28.0311 7.85514C28.4567 9.95839 27.4938 12.5674 26.9793 14.4982C22.9205 29.7451 32.0394 44.4284 30.5008 59.6329C29.6084 68.4531 24.6363 76.7874 24.5359 85.6622C24.2811 95.186 34.0493 114.629 28.9705 124.147C28.4339 125.153 26.8888 125.673 25.3143 125.629C20.565 125.495 14.4032 125.617 10.3611 125.099C9.3837 124.974 8.55378 124.532 8.36602 123.869C7.46084 120.672 9.53801 113.179 9.5711 110.054C9.7031 97.7036 3.77299 86.5747 5.23028 74.2407C6.31726 65.0443 11.5415 56.5947 11.3758 47.3297C11.2602 40.8635 8.09517 34.1341 6.93536 27.7439C5.98756 22.5206 3.9436 12.2274 7.56036 6.84032Z" fill="black"/>
<path d="M643.886 5.6578C648.706 5.89358 654.332 5.88895 658.726 6.25966C659.944 6.36236 661.008 6.89663 661.163 7.72257C661.673 10.4398 660.07 15.203 659.629 17.4704C656.817 31.8988 665.3 46.0868 663.582 60.3355C662.53 69.096 657.862 76.7087 657.573 85.7968C657.274 95.3262 667.077 114.992 661.647 124.228C661.093 125.171 659.628 125.654 658.133 125.619C653.483 125.509 647.196 125.574 643.274 125.077C642.413 124.968 641.657 124.608 641.461 124.029C640.382 120.851 642.511 111.896 642.462 108.745C642.276 97.4268 637.106 86.8219 638 75.6062C638.756 66.1498 644.745 56.7226 644.298 47.1514C643.851 37.541 638.852 27.8923 638.66 18.1246C638.599 14.8629 638.201 9.7394 640.723 6.65008C641.336 5.89937 642.624 5.59613 643.886 5.6578Z" fill="black"/>
<path d="M1268.28 4.04177C1280.59 4.20833 1279.29 9.79127 1277.47 16.1553C1276.78 18.5838 1280.36 19.7075 1282.8 17.8694C1285.27 16.0023 1287.83 14.2415 1290.11 13.372C1290.72 13.139 1291.44 13.0774 1292.12 13.1831C1293.96 13.4673 1294.56 13.9772 1296.05 15.1763C1304.06 21.597 1295.8 26.121 1288.21 29.8166C1285.87 30.9576 1286.13 33.2762 1288.67 34.204C1292.54 35.6198 1296.47 37.1893 1299.37 39.1045C1299.77 39.3677 1300.07 39.6904 1300.19 40.059C1301.32 43.538 1299.07 51.915 1292.17 50.7918C1291.09 50.6166 1290.07 50.3099 1289.09 49.9062C1285.49 48.4149 1279.43 49.8113 1279.62 52.673C1279.75 54.4931 1279.83 56.2439 1279.87 57.7941C1279.87 58.0844 1279.82 58.3753 1279.67 58.6492C1278.79 60.3451 1277.93 60.6195 1274.98 60.4097C1268.42 59.9443 1266.87 56.3796 1266.96 52.4098C1267.02 49.7541 1262.62 48.3175 1259.54 49.9553C1257.91 50.8188 1256.27 51.4918 1254.7 51.7794C1254.29 51.8541 1253.86 51.8606 1253.45 51.7847C1248.58 50.877 1246.77 45.3134 1247.75 42.601C1248.46 40.639 1254.1 37.96 1258.35 36.0706C1260.32 35.1979 1260.68 33.4202 1258.96 32.3328C1253.62 28.9435 1245.15 24.3024 1246.2 20.7389C1248.7 12.2789 1253.45 13.0388 1258.08 16.1699C1260.94 18.1044 1264.82 17.0312 1264.13 14.3305C1263.3 11.0795 1263.11 7.88972 1265.34 5.13614C1265.92 4.42301 1267.08 4.02556 1268.28 4.04177Z" fill="black"/>
</svg>
