<svg width="1305" height="193" viewBox="0 0 1305 193" fill="none" xmlns="http://www.w3.org/2000/svg">
<path d="M1113.96 23.8825C1129.97 -6.89318 1163.15 2.46697 1170.54 33.4977C1171.56 37.7526 1174.32 50.1203 1173.28 55.4372C1173.08 56.4716 1172.18 57.1323 1171.13 57.2429C1168.08 57.5649 1162.33 57.6667 1157.84 57.9597C1155.67 58.1007 1153.69 56.623 1153.29 54.4899C1151.53 45.0219 1146.81 26.3255 1134.46 34.5934C1129.94 37.6228 1128.81 50.1652 1128.25 55.8308C1125.66 81.9434 1151.67 79.9392 1164.74 94.5661C1181.19 113.263 1181.99 160.436 1163.38 180.137C1157.59 186.221 1149.61 189.749 1141.22 189.945C1133.28 190.094 1125.64 187.006 1120.03 181.393C1109.43 170.807 1107.61 155.273 1107.25 141.061C1107.19 138.821 1109.02 137 1111.26 136.977C1115.42 136.934 1119.58 136.777 1123.74 136.61C1125.85 136.526 1127.65 138.089 1127.86 140.182C1128.63 147.678 1129.32 152.978 1133.72 159.928C1134.05 160.441 1134.51 160.879 1135.05 161.166C1153.2 170.905 1157.41 140.455 1153.77 128.824C1151.12 120.305 1140.04 116.065 1132.57 112.794C1101.79 99.3237 1099.93 50.8491 1113.96 23.8825Z" fill="black"/>
<path d="M1220.39 4.0329C1224.1 3.85742 1228.79 4.01961 1232.89 4.18329C1235.29 4.27915 1237.08 6.43949 1236.7 8.80927C1229.93 50.5918 1214.84 122.037 1199.18 185.797C1198.74 187.583 1197.14 188.835 1195.3 188.818C1190.95 188.778 1188.22 188.671 1184.59 188.703C1181.95 188.726 1179.94 186.293 1180.53 183.72C1190.07 142.363 1197.62 103.095 1205.99 61.2702C1207.55 53.4936 1214.3 16.6662 1217.38 6.32196C1217.78 4.97199 1218.98 4.09941 1220.39 4.0329Z" fill="black"/>
<path d="M1061.23 5.43329C1083 4.26963 1092.22 30.353 1095.51 47.863C1096.52 53.2801 1080.44 66.7206 1074.02 69.031C1073.21 69.3235 1072.31 69.1368 1071.73 68.4938C1069.95 66.5058 1068.55 62.5645 1066.81 60.4977C1050.46 40.9778 1046.31 89.65 1045.76 96.9831C1045.26 109.715 1045.17 125.15 1054.05 135.311C1058.73 140.663 1067.77 144.051 1073.51 138.486C1077.93 134.196 1078.71 128.424 1079 122.585C1079.1 120.602 1077.69 118.866 1075.73 118.608C1071.92 118.11 1067.18 117.694 1063.27 117.328C1061.29 117.143 1059.76 115.524 1059.69 113.539C1059.45 107.092 1059.27 96.1541 1061.33 92.3786C1061.67 91.7732 1062.3 91.437 1062.98 91.3591C1069.47 90.6226 1088.58 93.8147 1094.9 95.2272C1095.24 95.3048 1095.58 95.4237 1095.87 95.6257C1099.92 98.4236 1098.52 106.46 1098.9 111.333C1100.74 135.024 1091 204.469 1053.16 184.53C1005 159.155 1011.59 19.106 1060.48 5.55634C1060.72 5.48879 1060.98 5.44679 1061.23 5.43329Z" fill="black"/>
<path d="M801.404 5.47333C821.844 6.31151 831.951 31.5692 834.039 49.4011C834.168 50.5067 833.796 51.5984 832.975 52.3503C828.66 56.303 816.46 66.1376 813.43 68.5759C809.313 71.8892 807.223 59.0245 799.696 56.0251C799.313 55.8724 798.891 55.8074 798.48 55.8405C787.382 56.7347 785.958 80.9012 784.905 89.1481C783.056 103.655 782.877 139.227 802.904 141.242C814.963 142.455 816.752 131.999 817.338 122.887C817.474 120.771 815.891 118.936 813.782 118.71L801.825 117.425C799.911 117.22 798.412 115.68 798.256 113.761C797.031 98.7436 796.397 86.9664 815.148 92.0407C820.799 93.5695 828.031 94.1486 834.393 95.6315C835.148 95.8074 835.854 96.2087 836.187 96.9079C836.505 97.5734 836.72 98.3447 836.763 98.945C838.688 125.648 837.141 154.998 821.982 177.993C813.485 189.969 799.962 190.921 788.625 182.702C752.9 156.801 750.013 13.3879 800.721 5.51239C800.943 5.47777 801.179 5.4641 801.404 5.47333Z" fill="black"/>
<path d="M691.295 6.22528C696.152 5.3441 709.114 6.29569 714.364 8.6706C714.795 8.86546 715.16 9.1471 715.396 9.55634C720.081 17.6642 722.03 70.2873 727.719 80.7438C728.376 81.9519 729.888 81.8989 730.29 80.5837C733.723 69.3537 719.736 14.4003 725.972 7.14716C726.421 6.62163 744.543 7.00721 748.98 8.18232C749.561 8.33604 749.975 8.78383 750.187 9.3454C750.79 10.9391 750.927 12.7914 750.956 14.4831C751.836 64.8906 753.864 115.016 753.321 165.458C753.27 170.635 755.464 178.132 751.626 182.196C751.065 182.789 750.251 183.035 749.436 183.086C741.75 183.565 733.668 186.167 726.02 187.048C716.994 188.087 715.097 186.616 714.21 177.908C711.013 152.49 709.823 126.853 703.918 101.821C702.642 96.4295 703.345 87.1234 700.146 82.3757C699.97 82.1139 699.669 81.9702 699.353 81.9724C699.045 81.9745 698.767 82.0847 698.615 82.3532C692.847 92.5195 711.279 170.516 707.71 184.517C707.443 185.564 706.475 186.127 705.397 186.191C699.067 186.565 687.239 185.188 680.661 185.724C679.947 185.782 679.179 185.582 678.586 185.179C678.237 184.943 677.993 184.677 677.814 184.295C674.236 176.615 675.863 146.409 675.964 137.507L676.156 81.9519C676.108 61.7968 675.049 41.6732 675.654 21.5319C675.755 17.9959 675.734 14.391 676.35 10.904C676.46 10.2811 676.727 9.68486 677.2 9.26532C680.355 6.46939 686.49 6.81632 691.295 6.22528Z" fill="black"/>
<path d="M994.629 8.77607C999.402 8.39845 1004.55 8.44365 1009.45 8.49384C1011.45 8.51448 1013.14 9.99795 1013.33 11.9851C1013.36 12.2827 1013.38 12.5806 1013.41 12.8786C1015.15 33.2055 1014.73 56.0731 1014.91 76.6647C1015.12 101.193 1015.69 126.927 1011.45 151.111C1010.32 163.791 999.632 188.357 983.758 187.174C940.177 183.926 952.676 89.0584 951.727 63.5095C951.237 58.8297 949.952 20.9747 950.619 12.3796C950.694 11.4083 951.264 10.5862 952.182 10.2604C956.042 8.8916 963.064 9.28059 968.067 9.67255C970.02 9.82563 971.58 11.3773 971.708 13.3317C973.565 41.7779 968.318 73.8713 970.262 102.213C972.18 112.089 971.864 131.71 975.142 140.906C975.211 141.099 975.304 141.293 975.405 141.471C986.797 161.561 988.347 141.623 990.687 133.847C994.973 119.607 988.861 24.9734 992.295 10.4987C992.551 9.41806 993.522 8.86366 994.629 8.77607Z" fill="black"/>
<path d="M275.234 7.01239C276.338 5.99701 277.831 6.43635 278.163 7.89911C278.662 10.1007 278.922 13.5255 279.055 17.1696C279.206 21.2937 284.114 22.419 286.042 18.7702C288.675 13.7883 291.568 9.1446 294.273 7.32001C294.851 6.93024 295.57 6.82737 296.249 6.98505C300.43 7.95632 300.738 11.5648 301.24 15.6179L301.403 18.0329C301.635 21.468 306.136 22.2669 307.415 19.07L308.095 17.3503C308.533 16.321 309.185 15.0086 309.808 13.7653C310.439 12.5077 311.679 11.6623 313.081 11.5427L317.833 11.1364C319.969 10.9541 321.874 12.4879 322.057 14.6237C322.916 24.6498 322.476 35.7808 323.653 45.6618C324.245 50.6238 325.167 62.5676 321.491 66.5378C321.132 66.9259 320.565 66.994 320.067 66.8151C319.863 66.7419 319.678 66.6348 319.534 66.4733C317.486 64.1816 315.368 56.8179 313.595 49.9567C312.636 46.2497 307.994 46.0741 306.754 49.697C305.184 54.2842 303.508 58.8267 301.328 63.1013C300.736 64.2628 299.852 65.0178 298.834 65.614C297.336 66.4907 296.339 68.0395 296.48 69.7692C296.8 73.6868 296.796 76.377 296.731 80.7126C296.717 81.6514 297.017 82.6016 297.805 83.112C300.198 84.6613 304.547 85.4565 306.626 87.1491C313.939 93.1052 302.264 104.431 294.54 112.273C292.396 114.45 293.681 117.864 296.613 118.721C316.705 124.594 297.712 137.794 287.817 147.711C286.335 149.196 286.459 151.553 288.059 152.911C295.989 159.638 311.448 170.825 313.666 176.697C313.9 177.317 313.814 178.006 313.434 178.549C309.799 183.744 294.484 183.101 288.366 184.633C285.705 185.3 274.464 186.8 270.158 186.844C269.276 186.853 268.397 186.44 268.13 185.599C266.829 181.503 274.218 175.213 279.239 170.997C281.095 169.438 280.977 166.698 278.99 165.309C273.385 161.392 265.546 156.101 264.127 151.742C263.993 151.33 263.982 150.892 264.133 150.486C265.491 146.82 273.906 139.715 279.551 134.879C281.467 133.237 281.298 130.286 279.289 128.759C263.973 117.122 269.026 116.369 282.906 104.128C284.799 102.458 284.592 99.4716 282.57 97.9606C270.389 88.8601 273.192 87.7535 283.791 75.6413C284.908 74.3642 285.085 72.5061 284.225 71.0427C283.141 69.1967 282.045 67.3575 280.938 65.5251C279.784 63.614 277.282 63.0395 275.398 64.238L275.075 64.4431C272.484 66.0915 269.092 64.3257 269.023 61.2556C268.957 58.2879 268.931 55.2854 268.933 52.28C268.937 48.0015 262.989 46.518 260.961 50.2849C259.917 52.2237 258.846 54.1758 257.73 56.1706C257.02 57.4403 255.67 58.2163 254.216 58.2018L251.364 58.1735C248.961 58.1497 247.121 56.0279 247.511 53.6569C249.28 42.8879 252.037 32.2725 252.806 21.4977C252.866 20.6403 247.487 18.1377 250.496 12.9431C250.839 12.3509 251.392 11.9085 252.023 11.6452C254.264 10.7114 257.261 9.80238 259.706 9.83368C260.675 9.84614 261.338 10.023 261.662 10.9362C262.993 14.6948 267.448 17.0116 269.74 13.7487C271.674 10.9963 273.615 8.50217 275.234 7.01239Z" fill="black"/>
<path d="M505.371 10.7526C505.772 8.61466 508.02 7.59034 510.13 8.11884C515.52 9.46914 519.017 9.0604 523.669 10.4684C524.51 10.7231 525.205 11.3067 525.383 12.1677C526.374 16.9753 525.844 31.5666 525.736 35.0388C524.623 71.2181 523.111 107.432 524.767 143.614C524.86 145.632 526.449 147.246 528.468 147.309C537.963 147.606 556.442 147.506 562.293 149.038C563.006 149.224 563.598 149.712 563.862 150.4C565.2 153.888 564.752 161.048 564.674 164.286C564.528 170.313 566.922 178.606 565.324 184.515C564.988 185.759 563.862 186.569 562.575 186.627C555.527 186.942 539.622 185.274 533.868 184.957C525.214 184.481 517.542 184.431 509.085 184.465C506.996 184.473 505.251 182.876 505.19 180.788C504.971 173.261 505.445 162.348 505.554 156.098C505.707 142.538 505.734 128.977 505.635 115.417L505.03 46.2477C504.925 37.3631 503.525 20.5884 505.371 10.7526Z" fill="black"/>
<path d="M612.873 7.35907C617.424 7.28698 626.085 7.49697 629.93 9.5495C630.797 10.0128 631.189 10.9778 631.104 11.9577C630.516 18.7608 625.74 35.1172 624.112 41.2058L612.742 84.777C610.006 95.0105 606.717 105.332 604.782 115.746C602.045 130.479 601.857 146.984 601.971 161.965C602.017 167.973 602.594 174.283 602.199 180.246C602.125 181.364 602.176 183.242 601.273 183.944C598.893 185.794 585.085 187.067 581.914 186.508C581.04 186.354 580.773 186.129 580.305 185.42C576.109 179.069 582.313 135.641 583.983 126.126C584.317 124.435 586.571 114.995 586.332 113.977C582.804 98.9626 576.767 83.421 572.108 68.6882C568.454 56.6044 564.529 44.4852 561.102 32.3395C555.297 11.7624 549.352 7.74925 571.776 9.39032C573.16 9.49159 574.394 10.3112 574.954 11.5808C578.279 19.1256 581.843 31.9966 584.59 39.3337C586.221 43.6917 588.234 48.6734 590.118 53.6188C591.548 57.3701 597.207 57.2191 598.122 53.3102C601.382 39.3813 604.019 24.8392 608.423 11.4851C608.991 9.76092 609.614 8.93084 610.809 8.0329C611.403 7.58707 612.131 7.37083 612.873 7.35907Z" fill="black"/>
<path d="M131.475 6.2829C136.505 6.05491 140.426 6.00857 145.134 6.14521C146.913 6.19687 148.442 7.43258 148.733 9.18915C151.671 26.881 147.679 62.4175 147.615 79.9431C147.554 96.678 147.235 115.003 147.587 131.804C147.724 138.354 149.092 175.289 148.037 182.644C147.945 183.282 147.605 183.839 147.013 184.095C144.03 185.39 136.163 185.142 130.882 184.919C128.688 184.826 126.938 182.994 126.948 180.799C127.046 158.72 126.061 135.197 125.761 112.825C125.733 110.796 124.197 109.093 122.174 108.943C115.198 108.427 110.754 108.901 103.81 109.686C101.78 109.916 100.243 111.636 100.255 113.678C100.385 136.056 101.243 158.392 101.32 180.772C101.212 182.263 101.082 182.747 100.625 183.758C100.368 184.328 99.9792 184.841 99.407 185.091C96.0854 186.547 87.5551 186.554 82.0281 186.575C80.0443 186.582 78.3051 185.171 78.1053 183.197C76.8845 171.134 78.7525 151.698 78.6727 139.771C78.4527 106.996 77.0514 74.0502 78.7303 41.3474C79.1686 32.8119 78.8663 21.0681 79.95 12.7009C80.0589 11.8605 80.5068 11.1298 81.3358 10.9538C84.3223 10.3198 91.8019 10.2351 96.7322 10.1403C98.8881 10.0989 100.778 11.7193 100.933 13.8698C102.209 31.4913 100.096 50.7695 100.273 69.3269C100.295 71.5922 102.231 73.3466 104.493 73.2204C110.479 72.8864 116.471 72.684 122.466 72.612C124.58 72.5865 126.326 70.9377 126.43 68.8259C127.423 48.6065 127.049 28.0293 127.995 7.93915C128.033 7.15484 129.495 6.7213 130.434 6.45575C130.774 6.35982 131.123 6.29892 131.475 6.2829Z" fill="black"/>
<path d="M372.571 8.30439C375.448 8.32017 387.297 7.87589 388.307 10.736C391.386 19.4523 391.822 32.6504 390.51 42.6491C390.225 44.8132 388.157 46.2089 385.993 45.9255C373.054 44.2302 361.097 45.7497 348.252 47.6081C346.404 47.8754 344.985 49.3906 344.855 51.2526C344.118 61.868 344.243 69.1297 345.621 79.5075C345.919 81.7515 348.071 83.2622 350.294 82.8347C381.366 76.8579 381.332 75.4221 380.814 108.841C380.778 111.19 378.735 113.018 376.392 112.839C366.26 112.062 358.467 112.634 348.717 116.221C347.244 116.763 346.265 118.157 346.235 119.725C346.084 127.566 346.591 137.16 346.97 145.389C347.079 147.762 349.211 149.544 351.582 149.403C360.885 148.85 374.552 149.659 383.373 149.617C383.635 149.616 383.892 149.586 384.15 149.537C384.87 149.399 385.683 149.272 386.52 149.153C388.791 148.83 390.87 150.517 391.069 152.801C392.062 164.205 392.523 170.328 390.733 181.979C390.44 183.885 388.794 185.289 386.866 185.27C371.068 185.117 352.816 182.94 337.39 186.087C336.453 186.278 335.532 185.656 335.403 184.708C333.154 168.361 332.523 149.103 331.897 132.522C331.237 115.038 333.707 97.6633 333.864 80.0612C334.024 62.1896 332.637 44.511 333.137 26.6999C333.22 23.7217 333.803 17.3531 335.242 14.1101C335.599 13.3069 336.367 12.798 337.226 12.6159C342.455 11.5084 348.016 12.0863 353.22 11.3015C360.198 10.2481 365.43 8.72448 372.571 8.30439Z" fill="black"/>
<path fill-rule="evenodd" clip-rule="evenodd" d="M896.43 8.36786C904.165 7.60127 917.014 7.0421 923.236 11.8688C943.535 27.6225 942.563 66.4247 930.433 87.2272C929.55 88.7425 929.626 90.648 930.673 92.0554C936.682 100.136 939.139 106.915 940.74 117.492C943.476 135.555 942.411 161.764 930.916 176.985C920.465 188.636 902.78 186.026 887.934 184.652C885.787 184.453 884.154 182.618 884.203 180.463C884.456 169.426 883.972 159.503 883.843 148.286L883.265 91.8259C883.08 76.7211 883.829 62.3744 884.014 47.3591C884.158 35.9791 883.872 24.3234 883.853 12.8142C883.85 10.7895 885.371 9.09063 887.389 8.9372C890.413 8.70764 893.725 8.55035 896.43 8.36786ZM903.11 109.858C901.397 109.87 900.047 111.019 899.971 112.73C899.621 120.644 899.933 142.199 900.131 151.631C900.177 153.819 901.986 155.544 904.175 155.574C909.775 155.651 915.879 155.718 919.615 152.624C919.856 152.424 920.061 152.182 920.231 151.919C924.566 145.196 924.944 137.758 924.02 129.982C921.858 111.756 917.891 109.758 903.11 109.858ZM921.641 47.4538C919.915 37.0288 911.909 37.0325 903.778 37.3727C901.873 37.4525 900.28 38.8549 900.141 40.7565C899.551 48.8298 900.005 63.631 900.146 72.6794C900.181 74.8719 901.951 76.6749 904.142 76.7399C909.074 76.8864 913.999 76.8957 918.132 74.4196C918.605 74.1358 918.992 73.7261 919.268 73.2477C923.891 65.2364 923.096 56.2763 921.641 47.4538Z" fill="black"/>
<path fill-rule="evenodd" clip-rule="evenodd" d="M201.936 8.12275C203.117 8.11579 204.249 8.61941 205.009 9.52314C214.409 20.7071 219.667 31.372 218.596 46.5339C217.144 67.0841 236.179 68.6027 238.164 87.572C239.772 102.939 233.232 117.833 236.679 132.89C238.734 141.871 247.624 147.473 251.77 155.286C255.086 161.129 256.512 176.019 255.052 182.972C254.899 183.7 254.495 184.366 253.825 184.689C251.432 185.841 247.148 185.734 243.557 185.521C241.366 185.391 239.666 183.515 239.7 181.32C239.828 172.999 239.333 162.609 234.342 156.952C225.713 147.172 222.13 143.049 219.942 131.589C219.516 129.354 217.407 127.906 215.15 128.19C213.641 128.38 212.132 128.429 210.752 128.118L210.359 128.026C206.738 127.2 203.203 124.44 200.097 122.298C195.719 119.738 189.094 119.899 184.471 121.786C163.491 130.358 177.305 147.048 180.235 161.748C181.624 168.72 180.353 175.895 177.873 182.466C177.312 183.95 175.87 184.895 174.283 184.907L166.904 184.962C163.929 184.984 161.982 181.84 163.027 179.054C171.117 157.505 155.947 155.108 157.93 132.627C159.108 119.284 175.158 112.406 178.37 101.098C182.813 85.456 169.367 70.1728 171.217 54.2087C171.963 41.7904 183.227 37.0986 188.467 27.1979C191.416 21.6236 188.387 12.4172 193.635 8.74775C194.086 8.43194 194.633 8.28668 195.183 8.25556C197.259 8.1383 199.723 8.13578 201.936 8.12275ZM202.834 36.6901C202.552 34.4139 200.349 34.1134 198.788 35.7936C192.612 42.4428 184.246 51.7754 185.937 59.2595C189.526 75.1288 193.836 81.3816 194.225 96.9548C194.285 99.3397 196.307 101.174 198.689 101.055C202.153 100.883 204.758 101.359 208.298 104.317C208.782 104.724 209.26 105.14 209.731 105.562C209.937 105.746 210.157 105.912 210.4 106.042C213.515 107.701 219.805 109.092 221.117 104.864C222.897 99.1298 222.968 89.9939 220.808 84.3815C216.277 73.9153 208.386 72.6111 204.653 61.0163C203.08 56.1285 203.663 43.3954 202.834 36.6901Z" fill="black"/>
<path d="M462.599 8.30536C468.219 7.59068 488.458 7.0746 494.879 9.13446C495.502 9.33455 496.008 9.76835 496.194 10.3962C497.462 14.6792 497.006 29.4843 496.735 37.3737C496.658 39.6014 494.782 41.346 492.554 41.3083C483.656 41.1575 473.624 41.4802 464.644 41.6706C462.512 41.7159 460.781 43.4168 460.745 45.5495C460.601 54.0632 460.827 63.5417 460.931 72.1628C460.958 74.3927 462.794 76.1793 465.023 76.1345C472.834 75.9768 480.529 75.8359 488.345 75.9821C490.422 76.0212 492.106 77.6664 492.18 79.7429C492.403 85.9644 492.406 93.1035 492.159 99.278C492.078 101.3 490.463 102.912 488.439 102.964C481.153 103.149 471.89 102.815 464.097 102.816C461.939 102.817 460.202 104.565 460.199 106.723C460.185 117.698 460.691 128.218 461.292 139.285C461.783 146.128 462.691 175.713 460.322 183.012C460.11 183.666 459.625 184.171 458.979 184.408C455.586 185.654 448.494 185.512 443.286 185.323C440.987 185.239 439.211 183.238 439.26 180.938C439.431 172.823 438.523 163.688 438.898 155.86C440.552 121.375 439.864 86.6839 440.264 52.197C440.34 45.7345 439.819 20.5021 440.639 13.1872C440.741 12.2792 441.25 11.4802 442.087 11.113C446.761 9.0614 458.007 8.67916 462.599 8.30536Z" fill="black"/>
<path d="M7.56036 10.0778C8.16623 8.74833 9.64333 8.16261 11.0975 8.30439C16.0434 8.78709 20.5601 8.70229 25.2957 9.20966C26.6443 9.35415 27.8464 10.2293 28.0311 11.5729C28.4567 14.6716 27.4938 18.5155 26.9793 21.3601C22.9205 43.8231 32.0394 65.4557 30.5008 87.8561C29.6084 100.851 24.6363 113.13 24.5359 126.205C24.2811 140.236 34.0493 168.882 28.9705 182.904C28.4339 184.386 26.8888 185.152 25.3143 185.087C20.565 184.889 14.4032 185.069 10.3611 184.306C9.3837 184.122 8.55378 183.471 8.36602 182.494C7.46084 177.784 9.53801 166.744 9.5711 162.141C9.7031 143.945 3.77299 127.549 5.23028 109.378C6.31726 95.8287 11.5415 83.3801 11.3758 69.7302C11.2602 60.2036 8.09517 50.2892 6.93536 40.8747C5.98756 33.1793 3.9436 18.0145 7.56036 10.0778Z" fill="black"/>
<path d="M643.886 8.33564C648.706 8.68301 654.332 8.67619 658.726 9.22235C659.944 9.37365 661.008 10.1608 661.163 11.3776C661.673 15.3808 660.07 22.3985 659.629 25.739C656.817 46.996 665.3 67.899 663.582 88.8913C662.53 101.798 657.862 113.014 657.573 126.403C657.274 140.443 667.077 169.415 661.647 183.023C661.093 184.413 659.628 185.124 658.133 185.072C653.483 184.911 647.196 185.007 643.274 184.274C642.413 184.113 641.657 183.583 641.461 182.729C640.382 178.048 642.511 164.854 642.462 160.213C642.276 143.537 637.106 127.913 638 111.389C638.756 97.4574 644.745 83.5686 644.298 69.4675C643.851 55.3087 638.852 41.0934 638.66 26.7028C638.599 21.8974 638.201 14.349 640.723 9.79755C641.336 8.69154 642.624 8.24479 643.886 8.33564Z" fill="black"/>
<path d="M1268.28 5.95478C1280.59 6.20017 1279.29 14.4254 1277.47 23.8015C1276.78 27.3792 1280.36 29.0347 1282.8 26.3268C1285.27 23.5761 1287.83 20.9818 1290.11 19.7009C1290.72 19.3575 1291.44 19.2668 1292.12 19.4226C1293.96 19.8413 1294.56 20.5925 1296.05 22.3591C1304.06 31.8186 1295.8 38.4838 1288.21 43.9284C1285.87 45.6094 1286.13 49.0253 1288.67 50.3923C1292.54 52.4782 1296.47 54.7904 1299.37 57.612C1299.77 57.9998 1300.07 58.4753 1300.19 59.0183C1301.32 64.1439 1299.07 76.4856 1292.17 74.8308C1291.09 74.5726 1290.07 74.1208 1289.09 73.5261C1285.49 71.3289 1279.43 73.3862 1279.62 77.6022C1279.75 80.2839 1279.83 82.8633 1279.87 85.1472C1279.87 85.5749 1279.82 86.0034 1279.67 86.4069C1278.79 88.9055 1277.93 89.3097 1274.98 89.0007C1268.42 88.315 1266.87 83.0632 1266.96 77.2145C1267.02 73.3019 1262.62 71.1855 1259.54 73.5983C1257.91 74.8705 1256.27 75.862 1254.7 76.2858C1254.29 76.3958 1253.86 76.4054 1253.45 76.2936C1248.58 74.9562 1246.77 66.7595 1247.75 62.7634C1248.46 59.8728 1254.1 55.9259 1258.35 53.1423C1260.32 51.8565 1260.68 49.2375 1258.96 47.6354C1253.62 42.642 1245.15 35.8044 1246.2 30.5544C1248.7 18.0904 1253.45 19.2099 1258.08 23.8229C1260.94 26.673 1264.82 25.0918 1264.13 21.113C1263.3 16.3234 1263.11 11.6239 1265.34 7.56708C1265.92 6.51644 1267.08 5.93089 1268.28 5.95478Z" fill="black"/>
</svg>
