<svg width="72" height="43" viewBox="0 0 72 43" fill="none" xmlns="http://www.w3.org/2000/svg">
    <g clip-path="url(#clip0_46_4835)">
    <path d="M26.9299 1.53906H35.1799L8.66992 41.2791H0.419922L26.9299 1.53906Z" fill="#1D1E1C"/>
    <path d="M45.1199 1.53906H53.3699L26.8599 41.2791H18.6099L45.1199 1.53906Z" fill="#1D1E1C"/>
    <path d="M63.5898 1.53906H71.8398L45.3298 41.2791H37.0798L63.5898 1.53906Z" fill="#1D1E1C"/>
    <path d="M64.6298 33.9388L65.9198 31.0088L66.5798 34.1488L69.4598 32.7288L67.9498 35.5588L71.0598 36.3188L68.0898 37.5188L69.9798 40.0988L66.9398 39.1088L66.7198 42.3088L65.0298 39.5888L62.8098 41.8988L63.2598 38.7288L60.0798 39.0788L62.4598 36.9388L59.7998 35.1488L62.9998 35.0388L62.0998 31.9688L64.6298 33.9388Z" fill="#1D1E1C"/>
    </g>
    <defs>
    <clipPath id="clip0_46_4835">
    <rect width="72" height="43" fill="white"/>
    </clipPath>
    </defs>
</svg>
